<?xml version="1.0" encoding="UTF-8" standalone="no"?>
<svg
   xmlns:dc="http://purl.org/dc/elements/1.1/"
   xmlns:cc="http://creativecommons.org/ns#"
   xmlns:rdf="http://www.w3.org/1999/02/22-rdf-syntax-ns#"
   xmlns:svg="http://www.w3.org/2000/svg"
   xmlns="http://www.w3.org/2000/svg"
   xmlns:xlink="http://www.w3.org/1999/xlink"
   xmlns:sodipodi="http://sodipodi.sourceforge.net/DTD/sodipodi-0.dtd"
   xmlns:inkscape="http://www.inkscape.org/namespaces/inkscape"
   width="400"
   height="200"
   viewBox="0 0 105.83332 52.916668"
   version="1.1"
   id="svg8"
   inkscape:version="1.0.2 (e86c870879, 2021-01-15)"
   sodipodi:docname="logo_trabalho.svg"
   inkscape:export-filename="/home/jr/Documentos/pos_pucpr_2019/tcc/codigos/tccpucpr19_flask/static/images/logo.png"
   inkscape:export-xdpi="96"
   inkscape:export-ydpi="96">
  <defs
     id="defs2">
    <linearGradient
       inkscape:collect="always"
       id="linearGradient3764">
      <stop
         style="stop-color:#ffffff;stop-opacity:1;"
         offset="0"
         id="stop3760" />
      <stop
         style="stop-color:#ffffff;stop-opacity:0;"
         offset="1"
         id="stop3762" />
    </linearGradient>
    <linearGradient
       inkscape:collect="always"
       id="linearGradient3583">
      <stop
         style="stop-color:#4b4a63;stop-opacity:1;"
         offset="0"
         id="stop3579" />
      <stop
         style="stop-color:#2d2d3c;stop-opacity:1"
         offset="1"
         id="stop3581" />
    </linearGradient>
    <linearGradient
       inkscape:collect="always"
       id="linearGradient3544">
      <stop
         style="stop-color:#afe9af;stop-opacity:1;"
         offset="0"
         id="stop3540" />
      <stop
         style="stop-color:#afe9af;stop-opacity:0;"
         offset="1"
         id="stop3542" />
    </linearGradient>
    <linearGradient
       inkscape:collect="always"
       id="linearGradient3512">
      <stop
         style="stop-color:#ffd5d5;stop-opacity:1;"
         offset="0"
         id="stop3508" />
      <stop
         style="stop-color:#d35f5f;stop-opacity:1"
         offset="1"
         id="stop3510" />
    </linearGradient>
    <inkscape:path-effect
       effect="fillet_chamfer"
       id="path-effect3488"
       is_visible="true"
       lpeversion="1"
       satellites_param="F,1,1,1,0,0.19102152,0,1 @ F,1,1,1,0,0.19102152,0,1 @ F,1,1,1,0,0.19102152,0,1 @ F,1,0,1,0,0.19102152,0,1"
       unit="px"
       method="auto"
       mode="F"
       radius="0"
       chamfer_steps="1"
       flexible="true"
       use_knot_distance="true"
       apply_no_radius="true"
       apply_with_radius="true"
       only_selected="false"
       hide_knots="false" />
    <inkscape:path-effect
       effect="fillet_chamfer"
       id="path-effect3470"
       is_visible="true"
       lpeversion="1"
       satellites_param="F,1,1,1,0,0.17324912,0,1 @ F,1,1,1,0,0.17324912,0,1 @ F,1,1,1,0,0.17324912,0,1 @ F,1,0,1,0,0.17324912,0,1"
       unit="px"
       method="auto"
       mode="F"
       radius="0"
       chamfer_steps="1"
       flexible="true"
       use_knot_distance="true"
       apply_no_radius="true"
       apply_with_radius="true"
       only_selected="false"
       hide_knots="false" />
    <inkscape:path-effect
       effect="fillet_chamfer"
       id="path-effect902"
       is_visible="true"
       lpeversion="1"
       satellites_param="F,1,0,1,0,0.27,0,1 @ F,1,0,1,0,0.27,0,1 @ F,1,0,1,0,0.27,0,1 @ F,1,0,1,0,0.27,0,1"
       unit="px"
       method="auto"
       mode="F"
       radius="27"
       chamfer_steps="1"
       flexible="true"
       use_knot_distance="true"
       apply_no_radius="true"
       apply_with_radius="true"
       only_selected="false"
       hide_knots="false" />
    <linearGradient
       inkscape:collect="always"
       xlink:href="#linearGradient3512"
       id="linearGradient3516"
       x1="146.48679"
       y1="-695.58588"
       x2="147.1947"
       y2="-734.00812"
       gradientUnits="userSpaceOnUse"
       gradientTransform="matrix(0.17248713,0,0,0.17195263,3.1005158,140.29383)" />
    <linearGradient
       inkscape:collect="always"
       xlink:href="#linearGradient3544"
       id="linearGradient3564"
       gradientUnits="userSpaceOnUse"
       gradientTransform="matrix(1,0,0,1.1751146,119.4167,-32.596867)"
       x1="37.114716"
       y1="-156.17171"
       x2="37.11245"
       y2="-175.72336" />
    <linearGradient
       inkscape:collect="always"
       xlink:href="#linearGradient3512"
       id="linearGradient3566"
       gradientUnits="userSpaceOnUse"
       gradientTransform="matrix(0.26458333,0,0,0.2508155,119.4167,-69.769905)"
       x1="146.48679"
       y1="-695.58588"
       x2="147.1947"
       y2="-734.00812" />
    <linearGradient
       inkscape:collect="always"
       xlink:href="#linearGradient3583"
       id="linearGradient3585"
       x1="133.78516"
       y1="-750.99274"
       x2="133.78516"
       y2="-717.16846"
       gradientUnits="userSpaceOnUse"
       gradientTransform="matrix(0.17248713,0,0,0.17248713,3.1005158,141.59641)" />
    <linearGradient
       inkscape:collect="always"
       xlink:href="#linearGradient3583"
       id="linearGradient3593"
       x1="98.993568"
       y1="-735.15692"
       x2="98.993568"
       y2="-679.9071"
       gradientUnits="userSpaceOnUse"
       gradientTransform="matrix(0.17248713,0,0,0.17248713,3.1005158,141.1972)" />
    <filter
       inkscape:collect="always"
       style="color-interpolation-filters:sRGB"
       id="filter3683"
       x="-0.10201265"
       width="1.2040253"
       y="-0.16584218"
       height="1.3316844">
      <feGaussianBlur
         inkscape:collect="always"
         stdDeviation="0.83915879"
         id="feGaussianBlur3685" />
    </filter>
    <linearGradient
       inkscape:collect="always"
       xlink:href="#linearGradient3764"
       id="linearGradient3766"
       x1="45.962681"
       y1="42.886585"
       x2="45.962681"
       y2="37.494541"
       gradientUnits="userSpaceOnUse" />
  </defs>
  <sodipodi:namedview
     id="base"
     pagecolor="#000000"
     bordercolor="#666666"
     borderopacity="1.0"
     inkscape:pageopacity="0"
     inkscape:pageshadow="2"
     inkscape:zoom="1.4244204"
     inkscape:cx="209.4098"
     inkscape:cy="161.43656"
     inkscape:document-units="px"
     inkscape:current-layer="g926"
     inkscape:document-rotation="0"
     showgrid="false"
     units="px"
     inkscape:window-width="1366"
     inkscape:window-height="704"
     inkscape:window-x="0"
     inkscape:window-y="27"
     inkscape:window-maximized="1"
     showguides="false"
     inkscape:guide-bbox="true"
     inkscape:snap-bbox="true"
     inkscape:snap-global="true"
     inkscape:snap-intersection-paths="false"
     inkscape:snap-smooth-nodes="false" />
  <metadata
     id="metadata5">
    <rdf:RDF>
      <cc:Work
         rdf:about="">
        <dc:format>image/svg+xml</dc:format>
        <dc:type
           rdf:resource="http://purl.org/dc/dcmitype/StillImage" />
        <dc:title></dc:title>
      </cc:Work>
    </rdf:RDF>
  </metadata>
  <g
     inkscape:label="Layer 1"
     inkscape:groupmode="layer"
     id="layer1">
    <g
       id="g3618"
       transform="translate(127.40216,192.73724)">
      <path
         id="path3550"
         style="color:#000000;font-style:normal;font-variant:normal;font-weight:normal;font-stretch:normal;font-size:medium;line-height:normal;font-family:sans-serif;font-variant-ligatures:normal;font-variant-position:normal;font-variant-caps:normal;font-variant-numeric:normal;font-variant-alternates:normal;font-variant-east-asian:normal;font-feature-settings:normal;font-variation-settings:normal;text-indent:0;text-align:start;text-decoration:none;text-decoration-line:none;text-decoration-style:solid;text-decoration-color:#000000;letter-spacing:normal;word-spacing:normal;text-transform:none;writing-mode:lr-tb;direction:ltr;text-orientation:mixed;dominant-baseline:auto;baseline-shift:baseline;text-anchor:start;white-space:normal;shape-padding:0;shape-margin:0;inline-size:0;clip-rule:nonzero;display:inline;overflow:visible;visibility:visible;opacity:1;isolation:auto;mix-blend-mode:normal;color-interpolation:sRGB;color-interpolation-filters:linearRGB;solid-color:#000000;solid-opacity:1;vector-effect:none;fill:#4b4a63;fill-opacity:1;fill-rule:nonzero;stroke:none;stroke-width:1;stroke-linecap:butt;stroke-linejoin:miter;stroke-miterlimit:4;stroke-dasharray:none;stroke-dashoffset:0;stroke-opacity:1;color-rendering:auto;image-rendering:auto;shape-rendering:auto;text-rendering:auto;enable-background:accumulate;stop-color:#000000;stop-opacity:1"
         d="m 142.85659,-242.24011 c -4.58307,0 -8.64218,2.79628 -9.99733,6.88743 l -7.244,17.07235 c -1.03135,3.1134 1.50725,6.33187 4.99504,6.33191 h 24.2037 24.20369 c 3.48779,-4e-5 6.02639,-3.21851 4.99504,-6.33191 l -7.244,-17.07235 c -1.35514,-4.09114 -5.41426,-6.88743 -9.99732,-6.88743 H 154.814 Z" />
      <path
         id="path3552"
         style="fill:#4b4a63;fill-opacity:1;stroke-width:2.64599;stop-color:#000000"
         inkscape:transform-center-x="-0.18853845"
         inkscape:transform-center-y="-0.38090621"
         d="m 155.20467,-271.27743 c -6.09598,-0.13989 -17.49439,12.50435 -17.63252,18.67826 -0.13812,6.17391 10.75519,17.71826 16.85117,17.85815 6.09598,0.13988 17.4944,-10.89307 17.63252,-17.06698 0.13812,-6.17391 -10.75519,-19.32955 -16.85117,-19.46943 z"
         sodipodi:nodetypes="sssss" />
      <path
         id="path3554"
         style="fill:url(#linearGradient3566);fill-opacity:1;stroke-width:2.64599;stop-color:#000000"
         d="m 154.81402,-253.78618 a 14.103683,6.9943839 0 0 0 -9.13071,1.66398 9.1444253,10.417686 0 0 0 -0.004,0.0935 c -0.0131,0.006 -1.49441,0.67557 -1.34669,1.73737 0.41427,1.54607 0.68085,0.76794 1.0511,2.00246 0.15541,0.45624 0.88832,0.75809 0.88832,0.75809 l -0.0677,-0.51676 a 9.1444253,10.417686 0 0 0 8.60981,6.90707 9.1444253,10.417686 0 0 0 8.61033,-6.91069 l -0.0682,0.52038 c 0,0 0.7329,-0.30185 0.88831,-0.75809 0.37025,-1.23452 0.63683,-0.45639 1.0511,-2.00246 0.14772,-1.0618 -1.33359,-1.73147 -1.34668,-1.73737 a 9.1444253,10.417686 0 0 0 -0.004,-0.0935 14.103683,6.9943839 0 0 0 -9.13071,-1.66398 z" />
      <path
         id="path3556"
         style="font-variation-settings:normal;opacity:1;vector-effect:none;fill:#39384c;fill-opacity:1;stroke:none;stroke-width:2.64583;stroke-linecap:butt;stroke-linejoin:miter;stroke-miterlimit:4;stroke-dasharray:none;stroke-dashoffset:0;stroke-opacity:0.983094;stop-color:#000000;stop-opacity:1"
         d="m 154.81402,-253.78618 c -3.2787,1.4e-4 -6.45487,0.56678 -8.9824,1.60249 0,0 0.0522,2.14569 0.84181,2.59984 2.48585,1.42973 6.10818,-1.82498 8.40724,-1.82503 2.29904,-6e-5 5.92828,3.26667 8.40724,1.82503 0.69594,-0.40472 0.72192,-2.30477 0.72192,-2.30477 -0.15022,-0.0884 -0.25752,-0.13849 -0.26096,-0.14005 -0.001,-0.0312 -0.003,-0.0624 -0.004,-0.0935 -2.54935,-1.07411 -5.78554,-1.66388 -9.13071,-1.66398 z"
         sodipodi:nodetypes="ccasaccccc" />
      <path
         style="font-variation-settings:normal;opacity:1;vector-effect:none;fill:url(#linearGradient3564);fill-opacity:1;stroke:none;stroke-width:2.64583;stroke-linecap:butt;stroke-linejoin:miter;stroke-miterlimit:4;stroke-dasharray:none;stroke-dashoffset:0;stroke-opacity:0.983094;stop-color:#000000;stop-opacity:1"
         d="m 139.32037,-214.26456 -13.1864,-26.83906 h 59.89884 l -15.72519,26.83906 z"
         id="path3558" />
      <path
         id="path3560"
         style="fill:#000000;fill-opacity:1;stroke:none;stroke-width:2.64599;stop-color:#000000"
         d="m 139.32037,-235.35268 c -1.1937,0 -2.15491,0.96121 -2.15491,2.15491 v 16.7783 c 0,1.19371 0.96121,2.15491 2.15491,2.15491 h -1.35341 c -0.4307,0 -0.77721,0.34651 -0.77721,0.77721 v 0.10594 c 0,0.4307 0.34651,0.77721 0.77721,0.77721 h 33.69407 c 0.4307,0 0.77773,-0.34651 0.77773,-0.77721 v -0.10594 c 0,-0.4307 -0.34703,-0.77721 -0.77773,-0.77721 h -1.35341 c 1.19371,0 2.15491,-0.9612 2.15491,-2.15491 v -16.7783 c 0,-1.1937 -0.9612,-2.15491 -2.15491,-2.15491 z" />
    </g>
    <g
       id="g903"
       transform="translate(-2.3273495,0.75436855)">
      <g
         id="g918"
         transform="translate(1.5477935,2.3114479)">
        <path
           id="path3490"
           style="fill:url(#linearGradient3593);fill-opacity:1;stroke-width:2.64599;stop-color:#000000"
           inkscape:transform-center-x="-0.17424795"
           inkscape:transform-center-y="-0.35204084"
           d="m 37.405578,16.027803 c -0.754483,-0.169856 -1.430353,-0.328916 -2.354852,-0.517797 -1.484742,-0.303343 -3.11988,-0.607992 -4.68511,-0.839527 -0.782625,-0.115766 -1.547598,-0.213107 -2.267607,-0.282986 -0.720007,-0.06988 -1.39517,-0.112205 -1.997411,-0.117574 -0.600694,-0.0054 -1.274211,0.02463 -1.993373,0.08152 -0.71916,0.05689 -1.483924,0.14066 -2.266251,0.242222 -1.564657,0.203124 -3.200272,0.478106 -4.685788,0.754295 -0.859045,0.159715 -1.472937,0.29365 -2.188768,0.440649 0.307676,4.096196 7.096335,11.187111 10.955628,11.275673 3.945784,0.09054 11.290854,-6.995977 11.483532,-11.036481 z" />
        <path
           id="path3495"
           style="color:#000000;font-style:normal;font-variant:normal;font-weight:normal;font-stretch:normal;font-size:medium;line-height:normal;font-family:sans-serif;font-variant-ligatures:normal;font-variant-position:normal;font-variant-caps:normal;font-variant-numeric:normal;font-variant-alternates:normal;font-variant-east-asian:normal;font-feature-settings:normal;font-variation-settings:normal;text-indent:0;text-align:start;text-decoration:none;text-decoration-line:none;text-decoration-style:solid;text-decoration-color:#000000;letter-spacing:normal;word-spacing:normal;text-transform:none;writing-mode:lr-tb;direction:ltr;text-orientation:mixed;dominant-baseline:auto;baseline-shift:baseline;text-anchor:start;white-space:normal;shape-padding:0;shape-margin:0;inline-size:0;clip-rule:nonzero;display:inline;overflow:visible;visibility:visible;isolation:auto;mix-blend-mode:normal;color-interpolation:sRGB;color-interpolation-filters:linearRGB;solid-color:#000000;solid-opacity:1;vector-effect:none;fill:#4b4a63;fill-opacity:1;fill-rule:nonzero;stroke:none;stroke-width:0.999997;stroke-linecap:butt;stroke-linejoin:miter;stroke-miterlimit:4;stroke-dasharray:none;stroke-dashoffset:0;stroke-opacity:1;color-rendering:auto;image-rendering:auto;shape-rendering:auto;text-rendering:auto;enable-background:accumulate;stop-color:#000000"
           d="m 18.381444,22.175357 c -2.987793,0 -5.63401,1.822951 -6.517454,4.490053 L 7.1414808,37.795213 c -0.672357,2.029688 0.982608,4.127872 3.2563682,4.127898 h 15.778866 15.778864 c 2.273763,-2.6e-5 3.928734,-2.09821 3.256376,-4.127898 L 40.489442,26.66541 c -0.883446,-2.667095 -3.529663,-4.490053 -6.517455,-4.490053 h -7.795272 z" />
        <path
           id="rect3672"
           style="opacity:0.652521;fill:url(#linearGradient3766);fill-opacity:1;stroke:none;stroke-width:1.90076;filter:url(#filter3683);stop-color:#000000"
           d="m 28.915528,38.711747 c -0.430699,0 -0.975862,0.397178 -0.777214,0.777214 l 5.535243,10.589535 c 0.198648,0.380035 0.346515,0.777213 0.777214,0.777213 h 14.617397 c 0.4307,0 0.617843,-0.378652 0.777214,-0.777213 L 54.079784,39.488961 C 54.239156,39.090399 53.73327,38.711747 53.30257,38.711747 Z"
           transform="matrix(1.1935324,0,0,1.623629,-23.157316,-42.699425)"
           sodipodi:nodetypes="sssssssss" />
        <path
           id="path3498"
           style="fill:url(#linearGradient3516);fill-opacity:1;stroke-width:2.64599;stop-color:#000000"
           d="m 26.176734,14.137016 a 9.1944709,4.795169 0 0 0 -5.95249,1.140789 5.9614324,7.1420961 0 0 0 -0.0027,0.06408 c -0.0085,0.004 -0.974234,0.46315 -0.877933,1.19109 0.270069,1.059944 0.443861,0.526479 0.685232,1.372834 0.101312,0.312791 0.579113,0.519728 0.579113,0.519728 l -0.04414,-0.354278 a 5.9614324,7.1420961 0 0 0 5.612906,4.735311 5.9614324,7.1420961 0 0 0 5.613238,-4.737796 l -0.04445,0.356763 c 0,0 0.477804,-0.206937 0.579116,-0.519728 0.241374,-0.846355 0.415161,-0.31289 0.685232,-1.372834 0.0963,-0.72794 -0.869389,-1.187041 -0.877929,-1.19109 a 5.9614324,7.1420961 0 0 0 -0.0028,-0.06408 9.1944709,4.795169 0 0 0 -5.952489,-1.140789 z" />
        <path
           id="path3601"
           style="font-variation-settings:normal;vector-effect:none;fill:#000000;fill-opacity:1;stroke:none;stroke-width:2.64583;stroke-linecap:butt;stroke-linejoin:miter;stroke-miterlimit:4;stroke-dasharray:none;stroke-dashoffset:0;stroke-opacity:0.983094;stop-color:#000000"
           d="m 20.220432,14.690275 c 0,0 0.03852,2.089006 1.190299,2.426101 1.284441,0.375935 3.184758,-0.224477 4.766327,-0.920082 1.581612,0.695644 3.482143,1.296037 4.766647,0.920082 1.15177,-0.337095 1.189976,-2.426101 1.189976,-2.426101 l -5.956623,0.0095 z" />
        <path
           id="path3568"
           style="fill:url(#linearGradient3585);fill-opacity:1;stroke-width:2.64599;stop-color:#000000"
           inkscape:transform-center-x="-0.17424604"
           inkscape:transform-center-y="-0.35203286"
           d="m 26.431422,3.6444446 c -3.974089,-0.0912 -11.404942,8.1519584 -11.494987,12.1768534 -0.0027,0.116262 0.02083,0.244684 0.02998,0.366528 0.71583,-0.146996 1.329721,-0.280931 2.188768,-0.440646 1.485516,-0.276192 3.12113,-0.551172 4.685787,-0.754297 0.782327,-0.101565 1.547091,-0.185322 2.266251,-0.242221 0.719161,-0.05692 1.392679,-0.08687 1.993372,-0.08152 0.602243,0.0052 1.277406,0.04772 1.997415,0.117575 0.720009,0.06988 1.484982,0.167223 2.267597,0.282984 1.56524,0.231537 3.200378,0.536185 4.68512,0.83953 0.924499,0.188881 1.60036,0.347943 2.354852,0.517801 9.24e-4,-0.02901 0.01081,-0.06128 0.01146,-0.08995 0.09002,-4.0249 -7.011524,-12.6014404 -10.985612,-12.6926314 z" />
        <path
           id="rect3533"
           style="fill:#000000;fill-opacity:1;stroke:none;stroke-width:2.64599;stop-color:#000000"
           d="m 16.076114,26.66541 c -0.7782,0 -1.404827,0.626632 -1.404827,1.404829 v 10.938106 c 0,0.778204 0.626627,1.404828 1.404827,1.404828 h -0.882313 c -0.280783,0 -0.506682,0.225898 -0.506682,0.50668 v 0.06907 c 0,0.280782 0.225899,0.506678 0.506682,0.506678 h 21.965828 c 0.280782,0 0.507018,-0.225896 0.507018,-0.506678 v -0.06907 c 0,-0.280782 -0.226236,-0.50668 -0.507018,-0.50668 H 36.27732 c 0.778198,0 1.404826,-0.626624 1.404826,-1.404828 V 28.070239 c 0,-0.778197 -0.626628,-1.404829 -1.404826,-1.404829 z" />
        <path
           id="text3631"
           style="font-style:normal;font-variant:normal;font-weight:bold;font-stretch:normal;font-size:29.3333px;line-height:normal;font-family:Hack;-inkscape-font-specification:'Hack Bold';font-variant-ligatures:normal;font-variant-position:normal;font-variant-caps:normal;font-variant-numeric:normal;font-variant-alternates:normal;font-variant-east-asian:normal;font-feature-settings:normal;text-indent:0;text-align:center;text-decoration:none;text-decoration-line:none;text-decoration-style:solid;text-decoration-color:#000000;letter-spacing:normal;word-spacing:normal;text-transform:none;writing-mode:lr-tb;direction:ltr;text-orientation:mixed;dominant-baseline:auto;baseline-shift:baseline;text-anchor:middle;white-space:normal;shape-padding:0;shape-margin:0;inline-size:0;vector-effect:none;fill:#4d4d4d;fill-opacity:1;stroke-width:0.793749;stroke-linecap:round;stroke-linejoin:round;stroke-miterlimit:4;stroke-dasharray:none;stroke-dashoffset:0;stroke-opacity:1;stop-color:#000000"
           d="m 25.876766,32.040663 -0.07348,1.600803 -1.42025,-0.46187 -0.196295,0.569988 1.378262,0.596233 -0.920065,1.408705 0.511729,0.36582 1.020315,-1.347297 1.019788,1.347297 0.511732,-0.36582 -0.919542,-1.408705 1.377738,-0.596233 -0.196291,-0.569988 -1.420256,0.46187 -0.07296,-1.600803 z" />
        <g
           id="g926"
           transform="translate(36.270536,-12.736027)">
          <path
             id="text871"
             style="font-style:normal;font-variant:normal;font-weight:normal;font-stretch:normal;font-size:29.3333px;line-height:normal;font-family:'Noto Sans';-inkscape-font-specification:'Noto Sans';font-variant-ligatures:normal;font-variant-position:normal;font-variant-caps:normal;font-variant-numeric:normal;font-variant-alternates:normal;font-variant-east-asian:normal;font-feature-settings:normal;font-variation-settings:normal;text-indent:0;text-align:center;text-decoration:none;text-decoration-line:none;text-decoration-style:solid;text-decoration-color:#000000;letter-spacing:normal;word-spacing:normal;text-transform:none;writing-mode:lr-tb;direction:ltr;text-orientation:mixed;dominant-baseline:auto;baseline-shift:baseline;text-anchor:middle;white-space:normal;shape-padding:0;shape-margin:0;inline-size:0;vector-effect:none;fill:#35dd27;fill-opacity:1;stroke-width:2.99999;stroke-linecap:round;stroke-linejoin:round;stroke-miterlimit:4;stroke-dasharray:none;stroke-dashoffset:0;stroke-opacity:1;stop-color:#000000"
             d="M 282.83984 42.966797 C 278.06034 42.966797 274.32714 43.689003 271.63867 45.132812 C 268.9502 46.576622 266.95851 49.190833 265.66406 52.974609 C 264.4194 56.758386 263.79688 62.233083 263.79688 69.402344 C 263.79688 75.526087 264.34415 80.431031 265.43945 84.115234 C 266.53476 87.749651 268.52644 90.487976 271.41406 92.330078 C 274.35147 94.17218 278.53421 95.09375 283.96094 95.09375 C 288.39194 95.09375 293.29493 94.495658 298.67188 93.300781 L 298.44922 82.546875 C 293.76928 83.094527 289.71066 83.369141 286.27539 83.369141 C 283.73628 83.369141 281.89509 83.070095 280.75 82.472656 C 279.60491 81.875218 278.80745 80.754284 278.35938 79.111328 C 277.9113 77.468373 277.61225 74.805297 277.46289 71.121094 C 277.4131 70.224936 277.38867 68.955456 277.38867 67.3125 C 277.38867 64.076376 277.6369 61.586279 278.13477 59.84375 C 278.68242 58.051435 279.65481 56.757522 281.04883 55.960938 C 282.44285 55.114566 284.45897 54.691406 287.09766 54.691406 C 289.98528 54.691406 293.76928 55.014884 298.44922 55.662109 L 298.82227 45.207031 C 293.04703 43.713435 287.71892 42.966797 282.83984 42.966797 z M 323.68945 42.966797 C 318.90995 42.966797 315.17675 43.689003 312.48828 45.132812 C 309.79981 46.576622 307.80812 49.190833 306.51367 52.974609 C 305.26901 56.758386 304.64648 62.233083 304.64648 69.402344 C 304.64648 75.526087 305.19376 80.431031 306.28906 84.115234 C 307.38437 87.749651 309.37605 90.487976 312.26367 92.330078 C 315.20108 94.17218 319.38382 95.09375 324.81055 95.09375 C 329.24155 95.09375 334.14454 94.495658 339.52148 93.300781 L 339.29883 82.546875 C 334.61889 83.094527 330.56027 83.369141 327.125 83.369141 C 324.58589 83.369141 322.7447 83.070095 321.59961 82.472656 C 320.45452 81.875218 319.65706 80.754284 319.20898 79.111328 C 318.76091 77.468373 318.46186 74.805297 318.3125 71.121094 C 318.26271 70.224936 318.23828 68.955456 318.23828 67.3125 C 318.23828 64.076376 318.48651 61.586279 318.98438 59.84375 C 319.53203 58.051435 320.50441 56.757522 321.89844 55.960938 C 323.29246 55.114566 325.30858 54.691406 327.94727 54.691406 C 330.83488 54.691406 334.61889 55.014884 339.29883 55.662109 L 339.67188 45.207031 C 333.89664 43.713435 328.56853 42.966797 323.68945 42.966797 z M 221.90234 43.9375 L 221.90234 55.662109 L 233.92578 55.662109 L 233.92578 94.123047 L 247.36719 94.123047 L 247.36719 55.662109 L 259.24219 55.662109 L 259.24219 43.9375 L 221.90234 43.9375 z "
             transform="matrix(0.26458332,0,0,0.26458332,-35.49098,9.6702105)" />
          <path
             id="text875"
             style="font-style:normal;font-variant:normal;font-weight:normal;font-stretch:normal;font-size:29.3333px;line-height:normal;font-family:'Noto Sans';-inkscape-font-specification:'Noto Sans';font-variant-ligatures:normal;font-variant-position:normal;font-variant-caps:normal;font-variant-numeric:normal;font-variant-alternates:normal;font-variant-east-asian:normal;font-feature-settings:normal;font-variation-settings:normal;text-indent:0;text-align:center;text-decoration:none;text-decoration-line:none;text-decoration-style:solid;text-decoration-color:#000000;letter-spacing:normal;word-spacing:normal;text-transform:none;writing-mode:lr-tb;direction:ltr;text-orientation:mixed;dominant-baseline:auto;baseline-shift:baseline;text-anchor:middle;white-space:normal;shape-padding:0;shape-margin:0;inline-size:0;vector-effect:none;fill:#ffffff;fill-opacity:1;stroke-width:3;stroke-linecap:round;stroke-linejoin:round;stroke-miterlimit:4;stroke-dasharray:none;stroke-dashoffset:0;stroke-opacity:1;stop-color:#000000"
             d="M 219.02344 103.96289 L 219.02344 126.46289 L 220.24805 126.5918 C 222.33263 126.8067 224.13824 126.91406 225.66406 126.91406 C 227.53374 126.91406 229.02702 126.64664 230.14453 126.10938 C 231.26204 125.55062 232.06822 124.65855 232.5625 123.43359 C 233.07827 122.20863 233.33594 120.54162 233.33594 118.43555 C 233.33594 115.44836 232.83037 113.30116 231.82031 111.99023 C 230.83175 110.67931 229.27405 110.02344 227.14648 110.02344 C 226.45879 110.02344 225.85757 110.08785 225.3418 110.2168 C 224.82602 110.34574 224.15844 110.57022 223.3418 110.89258 L 223.3418 103.96289 L 219.02344 103.96289 z M 343.16211 103.99414 L 343.16211 108.34766 L 347.48242 108.34766 L 347.48242 103.99414 L 343.16211 103.99414 z M 193.33203 104.2207 C 191.20447 104.2207 189.54917 104.58573 188.36719 105.31641 C 187.18521 106.02559 186.33608 107.1968 185.82031 108.83008 C 185.32603 110.46336 185.07812 112.74135 185.07812 115.66406 C 185.07812 118.32889 185.30456 120.46829 185.75586 122.08008 C 186.22865 123.67038 187.08753 124.87281 188.33398 125.68945 C 189.58043 126.50609 191.36457 126.91406 193.68555 126.91406 C 195.44777 126.91406 197.50128 126.66811 199.84375 126.17383 L 199.74609 122.53125 C 197.683 122.83212 195.92034 122.98242 194.45898 122.98242 C 193.08359 122.98242 192.06269 122.77746 191.39648 122.36914 C 190.73028 121.96082 190.27936 121.30495 190.04297 120.40234 C 189.82806 119.47825 189.69923 118.09233 189.65625 116.24414 L 189.65625 115.05078 C 189.65625 113.26707 189.78508 111.89285 190.04297 110.92578 C 190.32235 109.93722 190.80644 109.22864 191.49414 108.79883 C 192.18184 108.36902 193.20274 108.15234 194.55664 108.15234 C 195.88905 108.15234 197.61853 108.31436 199.74609 108.63672 L 199.875 105.0918 C 197.46806 104.51155 195.28767 104.2207 193.33203 104.2207 z M 271.66406 104.2207 C 269.30011 104.2207 267.46327 104.76922 266.15234 105.86523 C 264.84142 106.96125 264.18555 108.58337 264.18555 110.73242 C 264.18555 111.9144 264.40027 112.90212 264.83008 113.69727 C 265.28138 114.49241 265.98996 115.18147 266.95703 115.76172 C 267.9456 116.34196 269.28858 116.86705 270.98633 117.33984 C 272.4047 117.74816 273.41584 118.13466 274.01758 118.5 C 274.61931 118.86534 274.91992 119.43533 274.91992 120.20898 C 274.91992 122.10015 273.77995 123.04688 271.50195 123.04688 C 269.97613 123.04688 267.77426 122.85363 264.89453 122.4668 L 264.44336 125.91602 L 265.60352 126.14062 C 268.03194 126.6564 270.08351 126.91406 271.75977 126.91406 C 274.08074 126.91406 275.91953 126.31284 277.27344 125.10938 C 278.64883 123.90591 279.33594 122.17643 279.33594 119.91992 C 279.33594 118.71645 279.1544 117.7385 278.78906 116.98633 C 278.42372 116.21267 277.83226 115.56655 277.01562 115.05078 C 276.19899 114.53501 275.04925 114.04115 273.56641 113.56836 C 272.19101 113.13855 271.21306 112.81647 270.63281 112.60156 C 270.05257 112.36517 269.56847 112.07432 269.18164 111.73047 C 268.79481 111.38662 268.60156 110.94742 268.60156 110.41016 C 268.60156 108.86284 269.77277 108.08789 272.11523 108.08789 C 273.44765 108.08789 275.5851 108.26162 278.5293 108.60547 L 278.88477 105.0918 C 276.97211 104.74795 275.52177 104.52152 274.5332 104.41406 C 273.54464 104.28512 272.58815 104.2207 271.66406 104.2207 z M 351.76953 105.92969 L 351.76953 110.41016 L 349.86719 110.41016 L 349.86719 114.08398 L 351.76953 114.08398 L 351.76953 120.78906 C 351.76953 122.33638 351.91984 123.55053 352.2207 124.43164 C 352.52157 125.31275 353.01543 125.94716 353.70312 126.33398 C 354.39082 126.72081 355.35902 126.91406 356.60547 126.91406 C 357.09975 126.91406 357.5819 126.88283 358.05469 126.81836 C 358.54897 126.75389 359.22632 126.62506 360.08594 126.43164 L 359.89258 122.98242 L 357.44336 123.04688 C 356.84162 123.06837 356.46489 122.89659 356.31445 122.53125 C 356.16402 122.14442 356.08984 121.53149 356.08984 120.69336 L 356.08984 114.08398 L 360.05469 114.08398 L 360.05469 110.41016 L 356.08984 110.41016 L 356.08984 105.92969 L 351.76953 105.92969 z M 242.97461 110.02344 C 240.5032 110.02344 238.67612 110.75349 237.49414 112.21484 C 236.33365 113.6762 235.75391 115.88978 235.75391 118.85547 C 235.75391 121.69222 236.31218 123.74378 237.42969 125.01172 C 238.54719 126.27966 240.36256 126.91406 242.87695 126.91406 C 244.78961 126.91406 246.96024 126.61345 249.38867 126.01172 L 249.32422 122.82031 L 248.42188 122.91797 C 247.97057 122.96095 247.25028 123.00389 246.26172 123.04688 C 245.27315 123.08986 244.42403 123.11133 243.71484 123.11133 C 242.81224 123.11133 242.10366 123.0352 241.58789 122.88477 C 241.09361 122.71284 240.72858 122.4337 240.49219 122.04688 C 240.27728 121.63856 240.14845 121.05881 240.10547 120.30664 L 249.58203 120.30664 L 249.9043 117.30859 C 249.9043 114.88016 249.31479 113.0648 248.13281 111.86133 C 246.97232 110.63637 245.2526 110.02344 242.97461 110.02344 z M 262.44531 110.02344 C 260.85501 110.3458 259.13529 111.04461 257.28711 112.11914 L 257.28711 110.41016 L 253 110.41016 L 253 126.52734 L 257.31836 126.52734 L 257.31836 115.72852 L 257.96289 115.50391 C 259.33828 115.0741 260.83352 114.69736 262.44531 114.375 L 262.44531 110.02344 z M 288.94141 110.02344 C 286.47 110.02344 284.64487 110.75349 283.46289 112.21484 C 282.3024 113.6762 281.7207 115.88978 281.7207 118.85547 C 281.7207 121.69222 282.28093 123.74378 283.39844 125.01172 C 284.51594 126.27966 286.33131 126.91406 288.8457 126.91406 C 290.75836 126.91406 292.92899 126.61345 295.35742 126.01172 L 295.29297 122.82031 L 294.39062 122.91797 C 293.93932 122.96095 293.21903 123.00389 292.23047 123.04688 C 291.2419 123.08986 290.39278 123.11133 289.68359 123.11133 C 288.78099 123.11133 288.07241 123.0352 287.55664 122.88477 C 287.06236 122.71284 286.69733 122.4337 286.46094 122.04688 C 286.24603 121.63856 286.1172 121.05881 286.07422 120.30664 L 295.55078 120.30664 L 295.87305 117.30859 C 295.87305 114.88016 295.28159 113.0648 294.09961 111.86133 C 292.93912 110.63637 291.2194 110.02344 288.94141 110.02344 z M 305.06055 110.02344 C 302.63212 110.02344 300.88117 110.68907 299.80664 112.02148 C 298.73211 113.33241 298.19336 115.48157 298.19336 118.46875 C 298.19336 121.41295 298.71064 123.56211 299.74219 124.91602 C 300.79522 126.24843 302.48176 126.91406 304.80273 126.91406 C 306.09217 126.91406 307.8763 126.68958 310.1543 126.23828 L 310.02539 122.78906 L 306.28516 123.04688 C 305.2751 123.04687 304.50211 122.90633 303.96484 122.62695 C 303.44907 122.34758 303.08209 121.88495 302.86719 121.24023 C 302.67377 120.59552 302.57812 119.66051 302.57812 118.43555 C 302.57812 117.23208 302.67377 116.30878 302.86719 115.66406 C 303.08209 115.01935 303.44907 114.56843 303.96484 114.31055 C 304.48062 114.03117 305.23214 113.89062 306.2207 113.89062 C 306.92989 113.89062 308.1987 113.97651 310.02539 114.14844 L 310.1543 110.73242 C 308.88636 110.47454 307.87522 110.29105 307.12305 110.18359 C 306.37088 110.07614 305.68377 110.02344 305.06055 110.02344 z M 340.61523 110.02344 C 339.02494 110.3458 337.30717 111.04461 335.45898 112.11914 L 335.45898 110.41016 L 331.17188 110.41016 L 331.17188 126.52734 L 335.49023 126.52734 L 335.49023 115.72852 L 336.13477 115.50391 C 337.51016 115.0741 339.00345 114.69736 340.61523 114.375 L 340.61523 110.02344 z M 201.42188 110.41016 L 205.38672 126.52734 L 208.41797 126.52734 L 206.64453 133.29688 L 210.86719 133.29688 L 216.54102 110.41016 L 212.28516 110.41016 L 209.35156 122.85352 L 208.61133 122.85352 L 205.67773 110.41016 L 201.42188 110.41016 z M 313.18359 110.41016 L 313.18359 118.85547 C 313.18359 120.78962 313.34561 122.33756 313.66797 123.49805 C 313.99033 124.65853 314.53689 125.51742 315.31055 126.07617 C 316.1057 126.63493 317.19101 126.91406 318.56641 126.91406 C 319.27559 126.91406 319.94318 126.81841 320.56641 126.625 C 321.21112 126.45308 321.98412 126.11928 322.88672 125.625 L 322.88672 126.52734 L 327.17383 126.52734 L 327.17383 110.41016 L 322.85352 110.41016 L 322.85352 122.4668 C 322.14433 122.6817 321.58605 122.83201 321.17773 122.91797 C 320.79091 123.00393 320.34975 123.04688 319.85547 123.04688 C 319.16777 123.04687 318.65244 122.93951 318.30859 122.72461 C 317.98624 122.48821 317.77152 122.09 317.66406 121.53125 C 317.55661 120.95101 317.50391 120.08041 317.50391 118.91992 L 317.50391 110.41016 L 313.18359 110.41016 z M 343.16211 110.41016 L 343.16211 126.52734 L 347.48242 126.52734 L 347.48242 110.41016 L 343.16211 110.41016 z M 361.375 110.41016 L 365.3418 126.52734 L 368.37109 126.52734 L 366.59766 133.29688 L 370.82031 133.29688 L 376.49414 110.41016 L 372.24023 110.41016 L 369.30664 122.85352 L 368.56445 122.85352 L 365.63086 110.41016 L 361.375 110.41016 z M 242.94141 113.56836 C 243.95146 113.56836 244.65028 113.82602 245.03711 114.3418 C 245.44543 114.83608 245.65039 115.72815 245.65039 117.01758 L 240.07227 117.01758 C 240.09376 115.77113 240.32019 114.89077 240.75 114.375 C 241.17981 113.83774 241.90986 113.56836 242.94141 113.56836 z M 288.91016 113.56836 C 289.92021 113.56836 290.61903 113.82602 291.00586 114.3418 C 291.41418 114.83608 291.61719 115.72815 291.61719 117.01758 L 286.04102 117.01758 C 286.06251 115.77113 286.28894 114.89077 286.71875 114.375 C 287.14856 113.83774 287.87861 113.56836 288.91016 113.56836 z M 226.05078 113.89062 C 227.06084 113.89063 227.79089 114.24589 228.24219 114.95508 C 228.71498 115.64277 228.95117 116.81398 228.95117 118.46875 C 228.95117 120.1665 228.69351 121.35918 228.17773 122.04688 C 227.66196 122.71308 226.73866 123.04688 225.40625 123.04688 C 224.91197 123.04688 224.22291 123.00393 223.3418 122.91797 L 223.3418 114.31055 C 224.43781 114.03117 225.34159 113.89062 226.05078 113.89062 z "
             transform="matrix(0.26458332,0,0,0.26458332,-35.49098,9.6702105)" />
          <path
             id="text879"
             style="font-style:normal;font-variant:normal;font-weight:normal;font-stretch:normal;font-size:29.3333px;line-height:normal;font-family:'Noto Sans';-inkscape-font-specification:'Noto Sans';font-variant-ligatures:normal;font-variant-position:normal;font-variant-caps:normal;font-variant-numeric:normal;font-variant-alternates:normal;font-variant-east-asian:normal;font-feature-settings:normal;font-variation-settings:normal;text-indent:0;text-align:center;text-decoration:none;text-decoration-line:none;text-decoration-style:solid;text-decoration-color:#000000;letter-spacing:3.41226px;word-spacing:normal;text-transform:none;writing-mode:lr-tb;direction:ltr;text-orientation:mixed;dominant-baseline:auto;baseline-shift:baseline;text-anchor:middle;white-space:normal;shape-padding:0;shape-margin:0;inline-size:0;vector-effect:none;fill:#35dd27;fill-opacity:1;stroke-width:3;stroke-linecap:round;stroke-linejoin:round;stroke-miterlimit:4;stroke-dasharray:none;stroke-dashoffset:0;stroke-opacity:1;stop-color:#000000"
             d="M 231.63086 142.47266 C 229.04237 142.47266 227.53125 143.98493 227.53125 146.78125 L 227.53125 151.91992 C 227.53125 154.69735 229.04369 156.19141 231.61328 156.19141 C 234.29624 156.19141 235.82613 154.69735 235.88281 151.91992 L 233.19922 151.91992 C 233.12364 153.09136 232.65246 153.58398 231.61328 153.58398 C 230.78194 153.58398 230.32812 153.05357 230.32812 151.91992 L 230.32812 146.78125 C 230.32812 145.60982 230.80084 145.08008 231.61328 145.08008 C 232.63356 145.08008 233.08653 145.57203 233.16211 146.78125 L 235.84375 146.78125 C 235.74928 143.98493 234.27603 142.47266 231.63086 142.47266 z M 287.08398 142.47266 C 284.64665 142.47266 283.23047 143.94708 283.23047 145.96875 C 283.23047 149.99319 288.40625 150.2575 288.40625 152.44922 C 288.40625 153.11051 287.97201 153.62109 287.08398 153.62109 C 286.23375 153.62109 285.70508 153.16744 285.70508 152.10938 L 282.94727 152.10938 C 282.94727 154.77344 284.53396 156.22852 287.04688 156.22852 C 289.67315 156.22852 291.20312 154.64157 291.20312 152.46875 C 291.20312 148.25537 285.95117 148.12327 285.95117 146.04492 C 285.95117 145.44031 286.36733 145.0625 287.06641 145.0625 C 287.84106 145.0625 288.23633 145.49611 288.23633 146.36523 L 290.99609 146.36523 C 290.99609 143.9279 289.52132 142.47266 287.08398 142.47266 z M 324.21094 142.51172 C 322.07591 142.51172 320.81063 143.79568 320.69727 146.30859 L 323.11523 146.30859 C 323.15302 145.42057 323.56786 144.92969 324.24805 144.92969 C 324.98492 144.92969 325.28711 145.51521 325.28711 146.08203 C 325.28711 148.29264 320.56445 150.18247 320.56445 154.37695 L 320.56445 155.96484 L 327.89453 155.96484 L 327.89453 153.58398 L 323.26562 153.58398 C 323.26562 151.58121 327.83789 149.33126 327.83789 145.94922 C 327.83789 144.28654 326.72385 142.51172 324.21094 142.51172 z M 354.46094 142.51172 C 352.28812 142.51172 350.81445 143.96649 350.81445 146.1582 L 350.81445 148.0293 C 350.81445 149.95649 352.09819 151.39062 354.02539 151.39062 C 354.55443 151.39062 355.1397 151.22223 355.51758 150.91992 L 355.51758 152.58203 C 355.51758 153.35669 355.12091 153.69727 354.47852 153.69727 C 353.83612 153.69727 353.53456 153.26158 353.45898 152.5625 L 350.88867 152.5625 C 350.94535 154.792 352.34348 156.19141 354.47852 156.19141 C 356.65134 156.19141 358.10742 154.75553 358.10742 152.54492 L 358.10742 146.1582 C 358.10742 143.96649 356.63376 142.51172 354.46094 142.51172 z M 335.21289 142.54883 C 332.83224 142.54883 331.41602 144.04241 331.41602 146.57422 L 331.41602 152.16602 C 331.41602 154.67893 332.83224 156.15234 335.21289 156.15234 C 337.61244 156.15234 339.0293 154.67893 339.0293 152.16602 L 339.0293 146.57422 C 339.0293 144.04241 337.61244 142.54883 335.21289 142.54883 z M 203.4668 142.73828 L 203.4668 155.96484 L 206.15039 155.96484 L 206.15039 151.71289 L 207.30273 151.71289 C 210.04238 151.71289 211.66602 150.04959 211.66602 147.23438 C 211.66602 144.40026 210.04238 142.73828 207.30273 142.73828 L 203.4668 142.73828 z M 215.16797 142.73828 L 215.16797 151.71289 C 215.16797 154.50922 216.73569 156.19141 219.38086 156.19141 C 222.02603 156.19141 223.5957 154.50922 223.5957 151.71289 L 223.5957 142.73828 L 220.79883 142.73828 L 220.79883 151.71289 C 220.79883 152.92211 220.32556 153.58398 219.38086 153.58398 C 218.43616 153.58398 217.96484 152.92211 217.96484 151.71289 L 217.96484 142.73828 L 215.16797 142.73828 z M 239.62891 142.73828 L 239.62891 155.96484 L 242.3125 155.96484 L 242.3125 151.71289 L 243.46484 151.71289 C 246.20449 151.71289 247.83008 150.04959 247.83008 147.23438 C 247.83008 144.40026 246.20449 142.73828 243.46484 142.73828 L 239.62891 142.73828 z M 251.50195 142.73828 L 251.50195 155.96484 L 254.18359 155.96484 L 254.18359 151.52344 L 255.12891 151.52344 L 257.24414 155.96484 L 260.17383 155.96484 L 257.67969 150.95703 C 258.85112 150.25795 259.51172 148.93556 259.51172 147.14062 C 259.51172 144.36319 257.96222 142.73828 255.33594 142.73828 L 251.50195 142.73828 z M 271.63672 142.73828 L 268.87695 144.43945 L 268.87695 147.19727 L 270.69141 146.1582 L 270.69141 155.96484 L 273.24219 155.96484 L 273.24219 142.73828 L 271.63672 142.73828 z M 345.21484 142.73828 L 342.45703 144.43945 L 342.45703 147.19727 L 344.26953 146.1582 L 344.26953 155.96484 L 346.82031 155.96484 L 346.82031 142.73828 L 345.21484 142.73828 z M 335.21289 144.92969 C 336.10091 144.92969 336.57422 145.49726 336.57422 146.57422 L 336.57422 152.16602 C 336.57422 153.22408 336.10091 153.77148 335.21289 153.77148 C 334.32487 153.77148 333.87109 153.22408 333.87109 152.16602 L 333.87109 146.57422 C 333.87109 145.49726 334.32487 144.92969 335.21289 144.92969 z M 354.46094 145.00586 C 355.12223 145.00586 355.51758 145.44087 355.51758 146.17773 L 355.51758 147.83984 C 355.51758 148.59561 355.12159 149.04883 354.44141 149.04883 C 353.78011 149.04883 353.40234 148.59561 353.40234 147.83984 L 353.40234 146.17773 C 353.40234 145.44087 353.79964 145.00586 354.46094 145.00586 z M 206.15039 145.28906 L 207.26367 145.28906 C 208.34063 145.28906 208.9082 145.94958 208.9082 147.23438 C 208.9082 148.50028 208.34063 149.16211 207.26367 149.16211 L 206.15039 149.16211 L 206.15039 145.28906 z M 242.3125 145.28906 L 243.42773 145.28906 C 244.5047 145.28906 245.07031 145.94958 245.07031 147.23438 C 245.07031 148.50028 244.5047 149.16211 243.42773 149.16211 L 242.3125 149.16211 L 242.3125 145.28906 z M 254.18359 145.28906 L 255.29883 145.28906 C 256.24353 145.28906 256.75391 145.9314 256.75391 147.14062 C 256.75391 148.33095 256.24353 148.97266 255.29883 148.97266 L 254.18359 148.97266 L 254.18359 145.28906 z M 298.03125 145.70508 C 295.76396 145.70508 294.42187 147.14079 294.42188 149.57812 L 294.42188 152.24219 C 294.42188 154.71731 295.76332 156.19141 298.01172 156.19141 C 300.24122 156.19141 301.62029 154.92541 301.82812 152.77148 L 299.2207 152.77148 C 299.05066 153.45167 298.82349 153.73438 298.04883 153.73438 C 297.36864 153.73438 297.00977 153.28136 297.00977 152.24219 L 297.00977 151.82617 L 301.69531 151.82617 L 301.69531 149.57812 C 301.69531 147.14079 300.33633 145.70508 298.03125 145.70508 z M 309.69336 145.70508 C 308.65418 145.70508 307.8617 146.13936 307.35156 146.9707 L 307.18164 145.94922 L 305.5 145.94922 L 305.5 155.96484 L 308.05078 155.96484 L 308.05078 149.63477 C 308.05078 148.65227 308.46634 148.16016 309.08984 148.16016 C 309.69445 148.16016 310.01562 148.5961 310.01562 149.82422 L 310.01562 155.96484 L 312.56641 155.96484 L 312.56641 149.63477 C 312.56641 148.65227 312.96307 148.16016 313.60547 148.16016 C 314.21008 148.16016 314.53125 148.5961 314.53125 149.82422 L 314.53125 155.96484 L 317.08203 155.96484 L 317.08203 149.82422 C 317.08203 147.10347 316.02282 145.70508 314.20898 145.70508 C 313.2076 145.70508 312.41507 146.11987 311.92383 146.89453 C 311.43258 146.10098 310.67585 145.70508 309.69336 145.70508 z M 298.04883 148.08594 C 298.7668 148.08594 299.14453 148.51878 299.14453 149.53906 L 299.14453 150.06836 L 297.00977 150.06836 L 297.00977 149.53906 C 297.00977 148.51878 297.36864 148.08594 298.04883 148.08594 z "
             transform="matrix(0.26458332,0,0,0.26458332,-35.49098,9.6702105)" />
          <text
             xml:space="preserve"
             style="font-style:normal;font-variant:normal;font-weight:normal;font-stretch:normal;font-size:29.3333px;line-height:normal;font-family:'Noto Sans';-inkscape-font-specification:'Noto Sans';font-variant-ligatures:normal;font-variant-position:normal;font-variant-caps:normal;font-variant-numeric:normal;font-variant-alternates:normal;font-variant-east-asian:normal;font-feature-settings:normal;font-variation-settings:normal;text-indent:0;text-align:center;text-decoration:none;text-decoration-line:none;text-decoration-style:solid;text-decoration-color:#000000;letter-spacing:3.41226px;word-spacing:normal;text-transform:none;writing-mode:lr-tb;direction:ltr;text-orientation:mixed;dominant-baseline:auto;baseline-shift:baseline;text-anchor:middle;white-space:normal;shape-padding:0;shape-margin:0;inline-size:0;vector-effect:none;fill:#35dd27;fill-opacity:1;stroke-width:8.12991;stroke-linecap:round;stroke-linejoin:round;stroke-miterlimit:4;stroke-dasharray:none;stroke-dashoffset:0;stroke-opacity:1;stop-color:#000000"
             x="122.76056"
             y="208.01607"
             id="text922"
             transform="matrix(0.0976334,0,0,0.0976334,26.226401,29.115059)"><tspan
               sodipodi:role="line"
               id="tspan920"
               x="124.46669"
               y="208.01607"
               style="font-style:normal;font-variant:normal;font-weight:900;font-stretch:normal;font-family:Akrobat;-inkscape-font-specification:'Akrobat Heavy';fill:#35dd27;fill-opacity:1;stroke-width:8.12991">O</tspan></text>
        </g>
      </g>
    </g>
  </g>
</svg>
